<?xml version="1.0" standalone="no"?> <!DOCTYPE svg PUBLIC "-//W3C//DTD SVG 20010904//EN" "http://www.w3.org/TR/2001/REC-SVG-20010904/DTD/svg10.dtd"> <svg version="1.0" xmlns="http://www.w3.org/2000/svg" width="600.000000pt" height="400.000000pt" viewBox="0 0 600.000000 400.000000" preserveAspectRatio="xMidYMid meet"> <g transform="translate(0.000000,400.000000) scale(0.050000,-0.050000)" fill="#442318" stroke="none"> <path d="M7780 7740 c-14 -33 -37 -60 -52 -60 -16 0 -28 -9 -28 -21 0 -14 -12 -14 -37 0 -27 14 -35 35 -29 75 7 44 4 49 -12 26 -33 -46 -26 -87 19 -126 22 -19 36 -43 29 -54 -14 -22 -66 -5 -118 38 -31 26 -36 27 -29 3 6 -16 36 -44 68 -62 69 -38 74 -147 15 -284 -74 -171 -135 6 -78 225 8 28 -3 10 -24 -38 -22 -51 -44 -79 -52 -66 -7 13 -1 48 14 78 36 71 57 206 33 206 -11 0 -21 -16 -22 -35 -2 -19 -6 -48 -8 -65 -3 -16 -6 -39 -8 -50 -1 -11 -15 3 -31 30 -17 29 -29 38 -29 20 0 -16 8 -43 17 -58 21 -33 6 -87 -20 -71 -10 6 -18 32 -18 58 0 29 -21 60 -55 82 l-55 35 48 -53 c58 -63 41 -96 -21 -41 -43 38 -43 38 -15 -7 15 -25 44 -50 63 -57 19 -6 35 -20 35 -31 0 -12 -13 -16 -30 -10 -59 23 -29 -6 42 -39 73 -35 69 -47 -25 -76 -31 -10 -56 -1 -85 31 -23 24 -42 35 -42 24 0 -65 109 -105 181 -66 29 15 39 14 39 -4 0 -13 17 -43 39 -66 61 -66 79 -162 24 -132 -24 12 -43 38 -43 57 0 19 -10 48 -22 64 -15 22 -17 12 -7 -40 7 -38 26 -81 43 -94 57 -44 86 -130 83 -243 -2 -62 -7 -88 -11 -58 -5 30 -27 65 -49 77 -30 15 -37 34 -29 68 7 27 1 58 -15 74 -14 14 -39 53 -55 85 -15 32 -41 62 -58 67 -24 8 -23 1 5 -30 19 -21 35 -49 35 -60 0 -12 14 -32 30 -46 17 -14 30 -55 30 -92 0 -46 12 -73 40 -88 55 -29 50 -92 -10 -148 -34 -32 -50 -68 -50 -112 l0 -66 -49 72 c-50 75 -42 198 16 241 16 11 14 14 -6 8 -16 -4 -37 -34 -46 -66 -36 -118 -35 -117 -57 -95 -15 15 -12 39 9 79 19 38 23 69 12 90 -11 20 -11 55 1 90 13 40 11 89 -9 167 -25 94 -28 100 -28 40 2 -121 -2 -140 -28 -140 -14 0 -37 18 -50 40 -14 22 -39 40 -55 40 -45 0 -36 32 23 79 29 22 42 41 29 41 -32 0 -104 -78 -147 -158 -47 -87 -93 -72 -235 78 -60 64 -131 122 -157 130 -76 23 -73 -5 4 -37 43 -18 100 -70 144 -132 40 -56 94 -107 120 -113 48 -12 109 -87 108 -132 0 -16 -9 -12 -21 9 -11 19 -37 35 -59 35 -21 0 -68 18 -104 40 -36 22 -83 39 -105 38 -29 -1 -23 -7 20 -22 33 -12 74 -34 92 -49 17 -15 49 -27 71 -27 22 0 45 -5 52 -11 11 -12 -77 -108 -101 -110 -25 -1 -153 -119 -130 -119 13 0 51 24 86 53 71 60 110 38 89 -50 -7 -31 -3 -42 11 -33 12 8 20 50 16 95 -8 113 26 113 100 -1 97 -151 105 -187 91 -409 -13 -193 -42 -227 -46 -53 -2 132 -37 198 -105 198 -51 0 -59 7 -50 40 6 22 2 35 -8 29 -10 -6 -18 -24 -18 -40 0 -51 -41 -32 -131 61 -48 50 -98 90 -111 90 -13 0 23 -46 80 -102 75 -74 100 -112 92 -139 -8 -24 3 -50 29 -73 23 -19 41 -50 41 -69 0 -51 -64 -24 -110 48 -22 34 -75 83 -117 110 -96 60 -89 25 7 -39 39 -26 83 -76 99 -111 15 -36 43 -65 62 -65 18 0 49 -17 68 -39 49 -54 -89 -86 -146 -33 -20 17 -53 31 -75 31 -34 -1 -34 -3 5 -19 24 -9 49 -27 56 -39 16 -26 111 -28 175 -3 96 36 210 -101 222 -268 6 -77 18 -158 26 -180 14 -37 13 -38 -22 -10 -32 26 -31 21 5 -30 23 -33 49 -105 57 -160 l13 -100 -43 39 c-70 62 -150 348 -124 444 29 104 26 130 -7 57 -15 -33 -29 -51 -29 -40 -3 36 -84 155 -96 142 -7 -6 2 -28 20 -48 28 -31 102 -283 87 -298 -3 -3 -38 17 -78 45 -101 68 -116 62 -25 -11 42 -33 83 -60 91 -60 9 0 31 -45 49 -101 19 -56 69 -142 112 -191 109 -126 82 -249 -31 -137 -17 18 -31 23 -31 11 0 -36 -115 18 -126 59 -6 22 -25 39 -44 39 -30 0 -30 -3 -1 -31 17 -18 31 -40 31 -49 0 -9 32 -27 70 -40 82 -27 95 -80 19 -80 -80 0 -188 -54 -206 -103 -16 -42 -17 -42 -29 14 -8 38 -34 72 -75 94 -76 43 -65 63 90 168 55 37 90 67 78 67 -36 0 -206 -101 -224 -134 -14 -24 -26 -26 -59 -8 -63 33 -74 26 -23 -15 l46 -37 -109 -80 -108 -81 -17 81 c-24 115 -6 139 236 321 263 196 276 214 213 281 -28 30 -42 63 -35 82 8 21 5 27 -10 18 -22 -14 -18 23 15 125 10 34 9 34 -20 -2 -18 -21 -32 -56 -32 -77 0 -33 -5 -35 -30 -14 -22 19 -27 45 -18 96 10 50 7 66 -9 56 -34 -21 -28 -143 8 -173 27 -22 26 -223 -1 -255 -5 -5 -171 55 -187 68 -4 3 12 30 35 60 23 30 37 59 31 65 -11 11 -39 -23 -56 -67 -15 -39 -33 4 -36 86 -2 45 -12 77 -22 71 -10 -6 -12 -45 -5 -86 9 -53 4 -81 -17 -99 -21 -17 -27 -46 -19 -93 12 -77 4 -84 -43 -38 -19 20 -31 68 -32 125 0 52 -14 117 -31 144 l-30 50 15 -60 c23 -95 23 -239 -1 -255 -38 -25 -49 -17 -85 58 -19 41 -38 65 -41 54 -4 -11 7 -47 23 -79 38 -73 -43 -93 -150 -38 -34 18 -67 28 -73 23 -43 -44 169 -88 307 -64 54 9 88 6 97 -9 8 -12 38 -32 67 -43 l53 -20 -50 -39 c-128 -101 -140 -119 -140 -221 0 -135 -67 -93 -124 76 -37 107 -108 202 -134 176 -6 -6 2 -19 17 -29 55 -33 -8 -126 -79 -116 -32 5 -53 1 -48 -8 6 -9 26 -16 44 -16 54 -1 86 -30 73 -67 -8 -18 -34 -33 -60 -33 -26 0 -52 -9 -59 -20 -7 -11 9 -20 36 -20 27 0 60 -13 74 -30 14 -16 40 -30 57 -31 28 0 27 -5 -6 -30 -44 -33 -143 -39 -161 -9 -7 11 -32 20 -56 19 -33 0 -24 -10 36 -39 44 -21 100 -33 125 -27 51 13 59 -22 19 -76 -22 -28 -30 -29 -63 -5 -21 15 -57 28 -80 27 -28 -1 -14 -14 45 -43 97 -47 128 -29 155 89 20 89 125 134 173 75 42 -52 54 -246 12 -204 -28 28 -89 32 -104 7 -6 -10 9 -13 34 -9 118 23 163 -250 55 -337 -64 -52 -63 -52 -170 104 -53 77 -101 136 -107 130 -5 -6 31 -73 82 -149 l92 -139 -67 -40 c-40 -24 -77 -67 -92 -109 -14 -38 -50 -84 -81 -102 -79 -47 -133 -131 -186 -287 -25 -74 -56 -136 -69 -137 -13 -2 -40 -4 -61 -5 -22 -2 -67 -27 -102 -56 -73 -61 -130 -45 -204 58 -54 76 -40 116 104 295 150 186 176 262 144 418 -35 168 -32 179 66 284 97 104 103 129 65 269 -24 91 -23 93 38 146 82 70 100 108 117 261 14 120 21 133 124 237 116 116 166 206 166 301 0 68 34 101 175 172 57 29 120 76 138 104 19 29 53 59 76 69 41 16 41 16 -3 18 -26 1 -60 -23 -86 -60 -35 -48 -154 -127 -267 -176 -10 -5 3 21 30 56 26 35 61 106 77 157 29 91 33 94 115 100 50 4 85 -2 85 -15 0 -11 15 -21 34 -21 29 0 29 4 -5 29 -53 40 -167 39 -212 -2 -21 -18 -37 -24 -37 -12 0 12 -5 35 -12 52 -9 24 8 32 85 37 95 6 97 8 104 75 3 38 18 78 33 90 15 12 31 53 34 91 5 58 19 77 81 110 41 22 75 54 75 70 -1 19 -6 22 -15 9 -8 -12 -48 -41 -88 -65 -40 -25 -77 -63 -83 -86 -6 -23 -19 -37 -28 -32 -9 6 -18 -9 -20 -33 -17 -178 -26 -193 -108 -193 -102 0 -102 36 -1 157 42 51 92 117 111 146 19 29 61 64 93 77 32 14 59 32 59 41 0 9 -25 4 -55 -12 l-55 -29 -6 90 c-3 50 -15 90 -26 90 -13 0 -15 -34 -7 -90 15 -102 3 -128 -141 -290 -62 -70 -90 -90 -90 -66 0 57 75 165 140 202 61 35 78 90 37 116 -13 8 -18 5 -11 -6 23 -37 -65 -112 -99 -84 -43 36 -89 159 -76 201 6 20 3 37 -8 37 -31 0 -50 -81 -25 -106 12 -12 22 -35 22 -52 0 -16 20 -50 44 -76 33 -35 38 -52 21 -69 -30 -30 -85 12 -85 65 0 56 -64 178 -94 178 -14 0 -26 -10 -26 -21 0 -12 8 -16 18 -10 18 11 51 -58 73 -153 7 -30 24 -64 38 -75 14 -12 21 -44 16 -71 -10 -53 -45 -70 -45 -22 0 15 -18 49 -40 75 -28 33 -22 13 19 -68 32 -64 64 -153 72 -198 l14 -83 -63 44 c-51 37 -62 58 -62 123 0 78 -52 159 -101 159 -12 0 -20 20 -17 45 7 57 -19 135 -44 135 -12 0 -12 -15 1 -39 12 -21 21 -65 21 -96 0 -44 13 -65 53 -83 79 -36 42 -49 -41 -14 -64 26 -72 39 -75 106 l-3 76 -9 -67 -8 -67 -48 45 c-61 57 -61 65 3 129 29 29 47 58 40 64 -6 7 -30 -12 -53 -41 -50 -63 -71 -67 -85 -13 -6 22 -19 40 -31 40 -11 0 -7 -25 10 -59 26 -54 26 -62 -9 -97 -58 -58 -123 -7 -84 66 23 43 -53 270 -91 270 -13 0 21 -95 57 -155 32 -54 34 -71 13 -96 -22 -27 -29 -24 -50 26 -13 32 -69 91 -124 131 -55 41 -114 94 -130 119 -17 25 -38 38 -48 28 -15 -15 33 -64 211 -216 109 -92 60 -122 -56 -34 -26 21 -62 36 -80 36 -23 -1 -21 -6 9 -18 22 -9 52 -31 67 -49 15 -17 36 -32 47 -32 11 0 54 -29 96 -65 41 -36 94 -78 116 -95 22 -16 46 -52 53 -80 13 -47 12 -48 -15 -12 -21 28 -44 35 -86 27 -47 -9 -69 1 -119 53 -51 55 -72 64 -133 57 -40 -5 -94 2 -120 16 -47 25 -47 25 -9 -18 58 -65 -32 -60 -112 7 -47 40 -67 46 -97 29 -52 -27 -50 -45 3 -28 30 9 58 -3 99 -42 54 -52 63 -54 136 -32 117 35 176 29 217 -23 52 -66 80 -79 123 -56 30 16 47 10 84 -29 25 -27 66 -49 89 -49 42 0 110 -55 110 -89 0 -25 -181 7 -291 52 l-101 41 -76 -40 c-42 -23 -89 -36 -104 -30 -19 7 -28 -4 -26 -37 0 -26 6 -36 11 -22 6 14 23 25 38 25 15 0 60 15 100 34 69 33 74 33 155 -8 46 -24 129 -49 185 -56 55 -7 109 -19 120 -26 46 -33 108 -144 96 -174 -6 -17 1 -47 18 -66 34 -40 75 -153 75 -210 0 -29 -21 -13 -80 61 -44 56 -80 121 -80 146 0 28 -41 85 -109 152 -143 141 -175 138 -38 -3 59 -61 107 -115 107 -120 0 -24 -40 -6 -109 49 -47 37 -86 54 -107 46 -30 -12 -29 -15 7 -24 52 -14 229 -142 229 -166 0 -10 32 -55 70 -100 92 -108 89 -136 -31 -236 -120 -101 -150 -153 -168 -302 -9 -80 -27 -125 -61 -157 l-47 -44 -31 60 c-17 32 -60 83 -96 112 -221 176 -249 355 -83 512 102 96 180 260 124 260 -13 0 -18 -6 -11 -12 19 -20 -56 -152 -124 -217 -45 -42 -62 -50 -62 -27 0 17 -14 43 -31 57 -27 22 -16 41 90 148 106 107 177 268 96 218 -9 -6 -12 -26 -6 -44 7 -23 -22 -67 -91 -134 l-102 -99 34 80 c59 140 69 170 60 170 -5 0 -27 -34 -48 -75 -30 -59 -42 -68 -52 -42 -7 19 -3 52 8 74 12 22 21 61 20 87 -1 35 -6 29 -22 -24 -11 -38 -29 -81 -41 -95 -15 -19 -11 -36 14 -64 27 -29 29 -46 13 -78 -28 -51 -28 -137 -2 -153 23 -14 23 -137 0 -210 l-16 -50 -2 55 c-1 34 -25 75 -62 108 -73 65 -76 106 -10 163 52 45 58 80 29 164 -13 38 -15 30 -7 -32 7 -58 2 -88 -19 -106 -78 -65 -68 157 11 253 15 18 14 25 -3 25 -38 0 -88 -143 -90 -258 -1 -68 -10 -112 -26 -117 -15 -5 -25 10 -25 37 0 25 -14 61 -32 80 -29 33 -27 42 30 125 131 190 176 453 78 453 -19 0 -19 -5 0 -24 28 -28 33 -176 5 -176 -10 0 -21 29 -25 63 -5 59 -56 110 -56 57 0 -12 8 -18 17 -12 10 6 23 -36 30 -92 13 -115 -91 -334 -130 -272 -32 51 3 224 53 261 12 9 10 15 -6 15 -14 0 -30 -16 -36 -35 -7 -19 -19 -53 -28 -75 -32 -78 -37 -135 -14 -171 28 -47 5 -73 -36 -39 -38 32 -38 113 0 187 37 72 37 132 -1 182 -35 46 -37 31 -6 -38 19 -41 16 -66 -13 -131 l-36 -81 -44 41 c-23 22 -53 40 -66 40 -29 0 -29 11 -5 96 10 35 11 60 2 55 -9 -6 -21 -37 -28 -71 -18 -91 -56 -75 -41 17 11 72 7 82 -60 133 -39 30 -66 65 -59 77 7 13 0 11 -15 -3 -23 -21 -17 -34 37 -76 54 -42 65 -65 65 -129 0 -99 -28 -101 -79 -4 -21 41 -40 68 -40 59 -1 -9 8 -34 20 -55 26 -49 3 -51 -33 -4 -15 19 -27 26 -27 15 -1 -46 41 -76 161 -118 100 -34 137 -58 171 -113 41 -65 93 -122 172 -189 52 -44 43 -69 -23 -64 -32 2 -56 7 -52 10 3 4 -30 44 -74 90 -43 46 -92 111 -107 144 -25 54 -28 56 -28 14 -1 -25 24 -70 55 -100 30 -30 69 -80 85 -112 16 -32 59 -71 95 -86 61 -25 102 -75 79 -98 -5 -5 -52 2 -103 16 -75 20 -97 20 -110 0 -11 -19 -24 -15 -52 16 -20 22 -56 40 -81 40 -59 0 -104 159 -70 247 12 31 20 84 19 119 -1 73 -9 58 -28 -56 l-14 -80 -26 64 c-17 40 -44 65 -73 70 -29 4 -45 18 -41 36 6 24 2 25 -19 5 -29 -29 -7 -58 53 -68 31 -6 48 -37 73 -137 45 -177 45 -200 -3 -200 -22 0 -40 12 -40 27 0 14 -21 46 -48 71 -37 35 -49 71 -56 163 -9 123 -53 200 -114 198 -22 0 -15 -13 23 -41 49 -37 55 -54 55 -161 0 -103 7 -125 53 -168 29 -27 48 -55 41 -62 -7 -7 -54 24 -103 70 -50 46 -106 82 -126 81 -27 -1 -28 -4 -5 -12 17 -6 67 -47 113 -91 126 -121 271 -195 383 -195 94 0 224 -88 224 -151 0 -52 34 -69 135 -69 113 0 151 -46 106 -127 -20 -34 -43 -97 -50 -138 -13 -73 -14 -75 -56 -45 -24 16 -64 30 -89 30 -36 0 -46 11 -46 52 0 74 -57 184 -102 199 -21 6 -52 44 -68 82 -16 39 -48 75 -70 81 -22 6 -40 23 -40 38 0 16 -9 28 -19 28 -34 0 -2 -52 60 -98 32 -24 59 -56 59 -73 0 -56 -74 -29 -138 51 -63 78 -66 80 -193 80 -131 0 -139 4 -224 108 -50 61 -63 127 -42 205 12 42 15 124 8 186 -8 61 -14 137 -15 169 -1 47 -5 51 -20 23 -13 -22 -11 -68 4 -132 14 -56 18 -134 10 -181 -22 -129 -49 -54 -50 137 0 155 -3 167 -48 188 -77 35 -108 111 -61 147 22 16 29 29 17 29 -107 3 -95 -99 25 -209 38 -34 43 -55 33 -143 -13 -122 -59 -128 -113 -15 -18 37 -43 68 -55 68 -16 0 -15 -9 2 -30 21 -25 21 -29 -3 -20 -22 9 -27 41 -21 138 8 127 -35 214 -105 211 -11 0 -1 -17 24 -38 30 -25 50 -70 58 -131 l13 -93 -62 62 c-68 68 -137 79 -175 26 -24 -33 -29 -32 -87 11 -34 25 -62 36 -62 26 0 -34 87 -82 148 -82 63 0 163 -90 207 -187 14 -31 46 -57 79 -64 112 -25 122 -31 143 -85 52 -132 53 -170 1 -154 -110 34 -218 113 -218 160 0 25 -16 52 -35 60 -78 32 -145 46 -145 32 0 -9 36 -27 81 -40 44 -13 79 -35 77 -48 -1 -13 -2 -34 0 -47 3 -32 180 -140 255 -156 125 -26 102 -78 -26 -61 -154 19 -195 37 -245 107 -30 43 -65 63 -123 73 -114 19 -198 135 -202 278 -3 96 -3 98 -15 28 -16 -98 -58 -75 -78 44 -8 49 -27 91 -44 96 -24 7 -25 4 -5 -18 14 -14 25 -52 25 -83 0 -63 -110 -64 -182 -2 -48 41 -69 32 -28 -13 19 -21 68 -45 108 -52 39 -7 86 -21 102 -30 47 -26 -204 -8 -254 19 -24 13 -55 23 -70 22 -14 0 10 -19 53 -42 58 -31 112 -41 202 -39 l123 2 73 -113 c81 -125 82 -152 1 -95 -110 78 -159 108 -178 108 -11 0 7 -17 40 -37 131 -80 130 -106 -1 -100 -66 2 -130 13 -144 23 -38 28 -31 94 10 94 30 1 31 3 5 20 -109 71 -88 -91 24 -181 88 -71 78 -98 -38 -99 -87 0 -108 45 -93 205 9 95 5 134 -13 145 -18 11 -21 8 -11 -8 18 -30 -6 -242 -27 -242 -9 0 -26 34 -38 75 -13 41 -51 107 -85 145 -69 79 -60 46 18 -59 33 -44 40 -64 20 -56 -17 6 -82 18 -144 26 -82 10 -120 25 -134 51 -14 26 -41 37 -85 36 l-64 -1 57 -18 c32 -9 71 -35 86 -58 20 -28 53 -42 103 -43 116 -4 190 -25 199 -58 7 -27 6 -27 -13 0 -16 22 -21 23 -22 4 0 -14 32 -59 72 -100 70 -72 71 -74 26 -81 -34 -5 -68 18 -133 90 l-88 97 67 -95 c39 -56 92 -104 131 -119 40 -15 65 -38 65 -60 0 -56 -23 -45 -175 82 -150 127 -241 182 -299 182 -20 1 -56 30 -81 65 -25 35 -45 54 -45 42 0 -12 14 -33 30 -47 40 -34 38 -60 -6 -60 -20 0 -47 -11 -59 -23 -18 -18 -36 -18 -75 0 -58 26 -190 31 -190 8 0 -8 35 -16 77 -18 43 -1 102 -15 132 -31 l54 -29 -83 -25 c-46 -14 -79 -30 -73 -35 19 -19 143 32 178 73 49 57 99 53 84 -7 -14 -56 26 -72 174 -73 55 0 102 -11 116 -28 41 -50 -164 -82 -284 -45 -52 16 -95 22 -95 13 0 -32 189 -62 310 -49 114 12 129 8 220 -49 54 -34 114 -62 134 -62 30 0 76 -68 76 -111 0 -30 -165 1 -285 53 -124 55 -150 60 -213 41 -40 -12 -112 -17 -162 -12 -82 8 -85 7 -30 -12 33 -11 110 -16 170 -10 94 10 128 3 237 -49 70 -33 158 -60 196 -60 39 0 107 -22 153 -48 46 -27 134 -58 194 -71 61 -12 159 -54 219 -92 60 -38 125 -69 145 -69 50 0 71 -94 29 -135 -29 -29 -33 -28 -51 16 -11 27 -20 38 -21 24 -2 -49 -58 -24 -67 30 l-8 55 -3 -55 c-2 -43 9 -61 47 -75 28 -10 50 -27 50 -37 0 -29 -128 6 -209 57 -49 30 -88 40 -122 32 -43 -11 -51 -5 -62 47 -12 62 -33 86 -92 107 -53 19 -42 -4 13 -25 32 -12 50 -38 56 -80 11 -75 17 -76 -102 10 -109 78 -283 116 -312 69 -12 -19 -3 -23 33 -13 68 17 176 -17 247 -78 46 -40 50 -46 14 -29 -25 13 -57 19 -70 14 -26 -9 113 -74 158 -74 28 0 41 -120 16 -146 -7 -6 -47 11 -89 39 -64 43 -90 49 -160 37 -96 -16 -259 112 -259 203 0 50 -63 94 -116 81 -24 -5 -18 -12 22 -23 39 -11 59 -32 67 -71 6 -30 49 -97 96 -148 116 -127 44 -128 -91 -2 -53 50 -119 101 -147 113 -45 21 -51 36 -51 125 -1 79 -38 218 -40 145 0 -10 -14 -7 -30 7 -17 14 -36 21 -42 14 -7 -6 7 -23 30 -37 32 -20 42 -47 42 -111 l0 -85 -70 42 c-54 32 -70 54 -70 98 0 37 -14 65 -40 79 -28 15 -40 15 -40 0 0 -12 14 -26 30 -33 17 -6 30 -36 30 -70 0 -34 13 -63 31 -70 23 -9 25 -18 7 -39 -17 -21 -17 -35 0 -55 17 -21 15 -34 -8 -53 -16 -14 -29 -40 -28 -57 1 -28 3 -28 13 -3 6 17 26 41 43 54 27 20 28 30 7 65 -41 67 21 52 152 -37 171 -116 181 -134 81 -150 -70 -11 -88 -7 -112 27 -15 23 -38 41 -51 41 -12 0 -1 -22 25 -50 56 -60 45 -79 -29 -51 -29 12 -73 20 -97 19 -27 -1 -9 -13 46 -30 50 -16 114 -24 142 -17 48 10 52 6 43 -40 -8 -41 -21 -51 -67 -51 -47 0 -58 -9 -58 -45 0 -27 7 -36 15 -22 8 13 37 26 64 30 39 5 55 25 72 87 25 91 82 114 138 58 24 -24 95 -41 237 -56 197 -21 201 -23 153 -55 -108 -70 -292 -69 -359 3 -37 39 -72 60 -94 54 -28 -7 -26 -10 9 -12 26 -1 45 -15 45 -32 0 -17 -19 -31 -45 -31 -25 -1 4 -15 64 -31 173 -46 167 -62 -38 -95 -289 -45 -32 -49 294 -4 l105 15 0 -113 c0 -163 -125 -212 -171 -67 -10 29 -24 36 -59 28 -25 -7 -78 2 -117 18 -102 43 -139 34 -43 -10 44 -20 104 -38 134 -39 47 -1 96 -47 96 -90 0 -34 -121 -5 -163 39 -26 27 -65 49 -87 48 -28 -1 -31 -4 -10 -12 17 -6 54 -33 83 -60 58 -54 181 -67 282 -28 71 27 74 -6 6 -77 -45 -47 -46 -55 -19 -101 27 -45 29 -46 18 -5 -20 73 78 185 161 185 115 0 163 -34 178 -127 7 -46 18 -102 23 -124 9 -36 -3 -45 -80 -62 -103 -24 -112 -20 -112 51 -1 66 -21 96 -65 96 -38 -1 -27 -23 12 -25 12 0 21 -11 18 -24 -2 -13 4 -46 15 -74 34 -90 -150 -44 -200 49 -13 24 -42 40 -73 40 -29 0 -65 16 -81 35 -26 32 -26 31 -7 -9 12 -25 43 -46 74 -50 88 -10 74 -46 -20 -50 -98 -4 -139 50 -166 216 -9 57 -28 91 -65 114 -28 18 -58 42 -66 54 -58 87 -74 101 -63 55 7 -25 20 -51 29 -57 10 -6 13 -31 6 -57 -12 -51 18 -81 82 -81 28 0 42 -15 46 -52 12 -100 -88 -52 -146 70 -32 67 -86 133 -158 192 -61 50 -111 104 -113 120 -2 23 -5 24 -13 3 -6 -15 18 -53 54 -86 79 -72 68 -89 -30 -48 -101 42 -113 39 -35 -9 36 -22 92 -40 125 -40 57 0 160 -127 160 -197 0 -58 -137 -23 -222 57 -48 44 -93 80 -102 80 -8 0 -34 36 -56 80 -22 44 -50 80 -61 80 -11 0 -1 -26 23 -59 25 -33 38 -72 31 -91 -7 -17 -4 -27 6 -21 10 7 23 3 30 -7 20 -32 -134 -3 -204 38 -36 21 -65 30 -65 20 0 -26 149 -100 201 -100 24 0 61 -23 84 -51 23 -29 52 -47 68 -40 16 6 50 -3 76 -20 25 -17 94 -35 153 -41 154 -16 208 -42 240 -114 24 -55 39 -65 108 -69 149 -10 170 -21 170 -85 0 -49 -11 -62 -65 -79 -64 -19 -64 -19 -7 -15 56 4 77 25 100 99 16 51 119 3 105 -49 -5 -20 -1 -31 9 -25 10 6 18 22 18 35 0 14 43 35 95 48 52 12 111 29 130 36 26 11 35 4 35 -25 0 -30 -22 -44 -107 -63 -76 -17 -125 -43 -172 -91 -58 -59 -73 -66 -118 -48 -28 10 -72 14 -98 8 -39 -10 -51 -1 -75 57 -21 48 -49 75 -96 91 -36 12 -100 57 -142 101 -46 49 -94 80 -122 80 -26 0 -62 6 -82 13 -23 10 -30 6 -20 -10 8 -12 40 -23 72 -23 54 0 160 -83 160 -126 0 -8 39 -32 87 -53 143 -61 137 -101 -14 -101 -127 0 -173 21 -173 80 0 18 -30 61 -66 96 -69 67 -124 90 -68 28 32 -35 27 -124 -8 -124 -24 0 -71 79 -86 143 -7 31 -41 71 -80 96 -73 45 -132 121 -132 169 0 16 -8 35 -18 41 -10 6 -14 -5 -9 -24 8 -30 -6 -35 -100 -35 -60 0 -116 -7 -125 -15 -28 -28 4 -34 78 -14 88 25 97 20 242 -115 122 -114 136 -145 67 -148 -41 -2 -41 -4 -5 -13 55 -13 69 -42 70 -140 0 -92 -17 -107 -54 -46 -14 21 -49 41 -79 45 -44 5 -58 20 -73 76 -23 92 -215 267 -243 222 -13 -21 8 -42 42 -42 82 0 222 -233 170 -285 -21 -21 -132 81 -200 183 -17 26 -35 37 -39 25 -4 -13 -20 -23 -34 -23 -15 0 -32 -7 -37 -16 -6 -8 14 -15 43 -15 38 1 54 -10 58 -39 3 -22 0 -29 -6 -15 -6 14 -31 24 -55 24 l-43 -2 44 -17 c39 -16 86 -76 86 -110 0 -57 -101 17 -170 124 -57 89 -92 125 -123 125 -29 1 -51 20 -65 56 -20 53 -21 53 -16 6 2 -30 24 -60 54 -75 46 -24 47 -25 7 -26 -23 0 -54 14 -68 31 -32 39 -99 76 -99 55 1 -33 154 -124 192 -114 30 8 50 -9 83 -67 l44 -78 -57 8 c-38 6 -66 27 -81 62 -23 50 -26 51 -52 15 -20 -27 -35 -32 -53 -18 -14 11 -75 21 -136 21 -91 1 -101 -2 -60 -18 27 -10 76 -16 110 -13 75 8 85 -51 10 -61 -79 -10 -85 -33 -9 -31 38 1 75 8 82 14 15 16 251 -6 272 -25 51 -45 -185 -84 -254 -42 -64 40 -151 33 -151 -10 0 -6 17 -1 39 10 47 25 67 27 53 4 -24 -38 147 -72 215 -43 35 15 140 29 233 31 94 2 196 14 229 27 51 21 63 18 98 -17 53 -53 30 -73 -47 -41 -57 24 -66 22 -119 -29 -40 -39 -89 -60 -164 -70 l-107 -16 90 -2 c50 -2 115 10 145 26 65 34 102 0 44 -42 -43 -32 -23 -36 33 -6 30 16 34 29 18 59 -31 58 -26 61 65 48 141 -20 291 -68 339 -108 l46 -37 -56 -21 c-83 -32 -96 -28 -156 43 -48 57 -60 62 -96 40 -22 -13 -57 -19 -76 -13 -34 10 -34 10 0 -12 28 -18 43 -17 66 2 25 20 39 16 83 -28 56 -56 48 -98 -12 -60 -20 12 -141 28 -270 36 -128 8 -238 22 -243 30 -10 17 -163 100 -183 100 -7 0 10 -18 38 -40 28 -22 65 -40 82 -40 17 0 36 -9 43 -20 22 -36 -98 -21 -165 20 -36 22 -89 40 -116 40 -28 0 -86 18 -129 40 -86 44 -131 50 -149 21 -7 -10 5 -17 25 -16 116 9 194 -72 127 -132 -48 -44 -223 -46 -223 -4 0 34 -99 91 -154 91 -20 -1 2 -18 49 -39 51 -23 85 -53 85 -72 0 -46 -202 -31 -256 18 -21 18 -54 33 -76 32 -26 0 -17 -10 27 -29 76 -33 84 -64 20 -76 -25 -5 66 -10 202 -11 187 -2 244 -9 238 -28 -12 -36 -91 -43 -179 -16 -70 21 -222 -40 -187 -74 4 -5 33 10 64 33 53 38 63 39 137 13 l80 -28 -56 -21 c-31 -12 -78 -22 -103 -22 -26 0 -52 -14 -59 -32 -19 -49 -13 -61 14 -28 27 34 212 43 217 10 1 -11 -19 -31 -45 -45 -27 -13 -39 -25 -29 -25 11 0 0 -14 -25 -31 -24 -17 -44 -41 -44 -53 0 -12 17 -7 38 12 40 37 80 42 232 33 55 -3 82 -10 60 -16 -22 -5 -65 -31 -97 -57 -31 -27 -69 -48 -85 -48 -15 0 -27 -16 -26 -35 1 -21 5 -25 11 -10 6 14 23 25 38 25 15 0 51 23 81 50 30 27 70 50 90 50 19 0 40 8 46 17 6 10 40 24 76 31 35 7 87 34 115 60 35 32 85 51 161 59 118 13 200 76 200 154 0 42 2 42 190 -5 l80 -21 -100 -30 c-55 -16 -111 -33 -125 -37 -14 -4 -34 -28 -44 -55 -12 -31 -40 -52 -81 -60 -60 -12 -207 -133 -161 -133 12 0 41 23 65 50 50 58 101 67 82 15 -6 -19 -26 -52 -44 -73 -27 -32 -27 -36 -2 -28 17 5 44 39 62 75 53 110 181 112 152 2 -13 -52 -2 -53 26 -1 17 32 13 46 -19 74 -70 60 -51 93 78 131 180 53 264 13 122 -58 -72 -36 -120 -109 -118 -177 2 -52 4 -54 12 -11 33 177 214 251 278 114 l29 -63 -12 60 c-7 33 -35 78 -63 100 -59 48 -32 86 91 127 184 62 229 1 95 -128 -70 -66 -92 -102 -90 -144 2 -54 3 -54 12 -5 8 44 154 202 183 199 77 -10 89 -34 32 -64 -90 -46 -122 -92 -166 -235 -22 -71 -47 -148 -56 -170 -13 -35 -11 -37 16 -14 18 14 38 48 45 76 33 134 98 270 137 291 43 22 43 22 9 -17 -19 -21 -35 -64 -35 -94 0 -30 -9 -72 -21 -94 -12 -23 -14 -51 -3 -70 13 -22 24 5 39 97 23 138 119 273 163 229 20 -20 196 44 251 90 27 23 -92 -14 -163 -51 -72 -37 -86 -21 -86 94 1 118 46 143 324 183 193 27 475 39 422 17 -13 -5 -19 -22 -13 -36 13 -36 -47 -151 -79 -151 -13 0 -78 9 -143 20 -78 13 -126 13 -139 0 -13 -13 14 -20 79 -21 87 -2 220 -34 153 -38 -14 0 -63 -38 -110 -83 -46 -44 -123 -104 -170 -132 -47 -28 -82 -55 -76 -60 17 -17 215 101 255 152 32 42 43 45 57 21 22 -34 -6 -68 -56 -69 -22 0 -35 -18 -38 -50 -2 -32 0 -37 7 -14 6 21 22 32 37 27 42 -16 97 58 83 113 -10 39 0 53 58 80 52 25 81 60 117 142 41 92 55 107 90 98 63 -16 58 -246 -5 -246 -13 0 -33 -31 -45 -70 -12 -38 -15 -70 -5 -70 9 0 22 23 29 51 25 101 187 97 214 -6 7 -28 10 -26 12 8 1 29 -20 56 -68 84 -56 33 -70 54 -70 104 0 79 80 79 102 -1 12 -42 14 -43 16 -9 2 50 -34 89 -82 89 -20 0 -36 10 -36 22 0 15 22 18 65 9 36 -7 176 -26 312 -41 269 -31 563 -91 563 -115 0 -27 -147 -179 -189 -195 -32 -13 -54 -2 -101 51 -73 81 -272 112 -286 44 -4 -19 3 -35 15 -35 11 0 19 7 16 15 -16 47 199 13 226 -36 10 -20 19 -41 19 -46 0 -5 -108 -4 -239 2 -265 12 -301 1 -301 -96 0 -42 -21 -72 -85 -122 -99 -77 -133 -117 -134 -153 -1 -14 33 9 74 51 41 42 96 90 122 106 26 17 52 59 61 99 16 79 -26 74 417 58 230 -8 289 -35 175 -78 -61 -23 -65 -72 -9 -90 50 -16 81 -88 65 -153 -9 -37 -6 -42 14 -23 37 35 8 160 -44 188 -43 23 -43 23 10 62 30 22 54 54 55 73 0 18 48 85 105 148 l104 114 218 -60 c333 -93 369 -118 285 -196 l-48 -45 -71 42 c-39 23 -85 64 -103 91 -17 27 -41 49 -51 49 -11 0 -2 -18 20 -40 60 -60 49 -77 -55 -85 -91 -7 -90 -8 25 -12 156 -6 218 -37 179 -91 -27 -37 -30 -36 -98 16 -67 51 -71 52 -71 14 0 -22 -27 -71 -60 -109 -65 -74 -71 -104 -39 -216 21 -76 71 -113 106 -78 15 15 8 21 -21 21 -78 0 -91 173 -19 245 26 26 51 60 56 75 8 23 22 19 66 -16 63 -49 111 -57 111 -18 0 27 134 168 146 153 3 -5 45 -76 93 -158 57 -97 169 -232 325 -392 251 -258 293 -329 245 -412 -52 -90 -55 -103 -32 -135 134 -182 133 -342 -4 -604 l-93 -179 -2 -234 c-1 -129 -8 -284 -15 -345 l-13 -110 -180 -25 c-99 -13 -200 -20 -223 -15 -24 6 -114 -4 -200 -20 -87 -17 -233 -30 -326 -30 -200 0 -358 -40 -376 -96 -6 -18 352 -24 1503 -24 971 0 1512 7 1512 20 0 88 -300 146 -785 149 -470 4 -458 -2 -517 244 -70 291 -51 456 77 671 93 155 106 226 72 388 -59 284 104 527 354 528 114 1 244 39 312 91 56 43 72 46 116 26 38 -18 70 -18 124 -1 58 18 78 16 101 -7 19 -19 66 -28 132 -27 l104 3 -108 16 c-132 19 -156 50 -85 109 74 62 103 68 180 36 43 -18 97 -23 155 -15 65 10 101 5 137 -19 69 -45 91 -39 34 9 -37 30 -80 40 -190 41 l-143 3 107 16 c66 9 124 32 154 60 32 30 62 41 93 33 44 -12 45 -11 7 17 -34 25 -44 25 -80 -1 -101 -73 -116 -77 -100 -27 8 26 22 50 32 54 10 4 29 18 43 32 13 13 38 30 54 36 25 10 24 12 -3 13 -17 1 -43 -11 -57 -28 -34 -41 -55 -38 -70 11 -9 26 -1 55 19 78 18 19 36 56 41 82 5 25 18 55 30 67 25 25 26 58 1 42 -52 -31 -123 -219 -111 -290 16 -95 -15 -120 -168 -138 -94 -11 -139 -30 -214 -88 -55 -43 -116 -74 -146 -73 -49 0 -50 2 -12 22 22 12 77 62 122 110 63 67 96 87 145 87 71 0 103 51 103 166 1 89 24 117 113 135 l77 14 -80 5 c-71 3 -74 6 -30 20 41 13 43 16 10 18 -23 0 -83 -42 -139 -98 -104 -104 -156 -132 -102 -56 17 25 31 69 31 98 0 44 15 60 82 87 46 18 78 37 73 43 -26 25 -175 -58 -175 -98 0 -77 -67 -193 -112 -193 -62 -1 -72 21 -33 67 35 42 35 42 -8 6 -37 -31 -49 -33 -85 -11 -55 35 -55 36 39 128 45 43 127 140 182 214 110 148 166 177 266 136 33 -13 72 -25 86 -26 17 -1 25 -36 25 -105 0 -92 4 -103 43 -102 35 2 44 -12 51 -77 4 -44 26 -108 47 -143 21 -34 39 -85 39 -113 0 -28 12 -60 27 -72 14 -13 37 -58 50 -102 23 -77 71 -122 127 -120 14 0 1 14 -29 30 -48 26 -94 116 -72 139 5 5 44 -5 88 -20 91 -33 164 -38 89 -6 -181 76 -200 87 -200 128 0 24 -19 67 -42 96 -54 69 -33 91 45 47 33 -19 80 -35 104 -35 23 0 69 -14 100 -30 32 -17 72 -30 90 -29 50 1 -100 77 -154 78 -42 1 -44 5 -21 33 19 24 48 29 106 21 53 -7 70 -4 51 8 -45 28 -125 22 -176 -13 -34 -24 -52 -27 -69 -10 -12 12 -52 22 -88 22 -60 0 -66 5 -66 60 0 65 19 73 86 37 50 -27 217 -38 202 -14 -6 10 -40 17 -77 17 -78 0 -211 51 -211 81 0 12 11 15 25 7 14 -8 9 3 -10 25 -40 46 -28 67 39 67 26 0 52 14 59 30 34 89 147 27 183 -102 25 -87 82 -128 180 -128 150 -1 174 -34 81 -116 -59 -53 -72 -168 -15 -133 13 8 12 22 -2 39 -17 20 -6 41 44 88 l66 62 40 -55 c110 -150 117 -154 256 -155 100 0 140 -9 173 -39 37 -33 41 -34 30 -4 -17 42 -72 73 -133 73 -114 1 -296 122 -296 199 0 50 99 20 130 -39 17 -33 47 -60 67 -60 58 0 267 -92 285 -125 10 -17 51 -51 93 -75 74 -44 74 -44 37 -2 -21 23 -50 42 -65 42 -15 0 -27 9 -27 20 0 45 187 -4 248 -65 19 -19 50 -34 68 -34 27 1 25 5 -7 18 -22 9 -52 31 -67 49 -15 17 -42 33 -59 34 -18 2 -6 9 27 17 33 7 80 5 105 -6 30 -13 60 -12 90 2 25 12 59 27 75 32 17 5 7 11 -21 11 -28 1 -61 -8 -73 -20 -16 -16 -33 -15 -64 1 -23 12 -76 18 -117 11 -67 -10 -70 -8 -25 11 28 12 84 19 125 15 41 -4 75 0 75 8 0 9 -24 16 -54 16 -60 0 -42 31 24 44 23 4 31 13 19 20 -12 8 -43 1 -70 -14 -148 -85 -197 -84 -106 2 46 43 48 49 12 30 -25 -13 -60 -46 -77 -73 -42 -64 -127 -64 -202 -1 -31 26 -77 51 -102 55 l-44 7 46 58 c46 57 47 57 101 22 52 -34 57 -34 173 19 66 29 129 48 140 41 11 -7 20 1 20 17 0 30 -81 20 -139 -17 -44 -26 -19 54 30 99 48 45 49 47 8 37 -26 -7 -57 -45 -80 -99 -39 -91 -64 -102 -148 -64 -56 26 -61 41 -30 98 15 28 44 40 105 42 77 3 78 4 17 12 l-67 8 45 48 c25 27 63 49 84 49 22 0 32 9 24 22 -8 12 5 48 29 79 50 68 53 105 11 139 -59 50 15 99 111 73 89 -24 92 -31 50 -113 -30 -58 -4 -120 51 -120 11 0 19 -18 19 -40 0 -43 40 -50 110 -20 34 14 29 17 -25 19 -41 0 -65 11 -65 29 0 15 -18 39 -40 55 -40 26 -40 29 -5 101 39 83 73 95 105 37 11 -22 59 -50 105 -64 47 -13 101 -37 120 -54 34 -28 94 -20 205 28 11 5 29 -11 40 -36 16 -36 38 -46 110 -48 86 -4 87 -3 19 11 -135 28 -160 73 -50 93 48 9 82 3 114 -19 25 -18 55 -32 66 -31 12 0 4 10 -17 22 -36 21 -36 24 10 50 45 27 42 28 -42 17 -87 -11 -88 -10 -40 19 63 37 15 41 -57 3 -168 -87 -257 -65 -145 36 22 20 37 44 32 52 -5 8 15 10 44 4 36 -7 48 -3 38 13 -20 32 -106 29 -118 -5 -7 -17 -30 -23 -65 -17 -37 7 -90 -8 -163 -47 l-108 -58 -48 55 c-28 31 -73 57 -104 60 -49 4 -206 107 -206 135 0 37 145 84 224 72 68 -9 109 -2 193 38 59 27 140 50 180 50 40 0 87 9 103 20 67 43 -148 18 -272 -32 -93 -37 -146 -47 -192 -37 l-63 14 77 26 c42 15 85 40 94 57 36 65 121 152 148 152 15 0 28 9 28 20 0 49 -64 11 -149 -88 -62 -73 -112 -111 -155 -120 -34 -7 -92 -35 -128 -62 -74 -56 -108 -63 -108 -22 0 16 -5 41 -10 55 -14 36 54 77 200 121 l120 37 -93 -10 c-51 -5 -134 -29 -183 -53 l-90 -44 -80 63 c-116 92 -168 83 -79 -13 45 -49 45 -49 -55 6 -55 30 -166 84 -247 120 l-147 65 117 67 c104 59 134 66 271 67 103 1 147 8 134 21 -45 45 -251 18 -382 -50 l-126 -66 52 67 c35 46 80 75 140 91 48 13 124 39 168 58 60 26 109 32 196 23 86 -9 133 -4 177 19 57 29 64 29 104 -8 24 -22 85 -45 137 -53 70 -10 104 -27 133 -67 22 -30 45 -49 52 -42 32 32 -73 113 -183 139 l-116 28 80 6 c44 3 136 20 205 37 69 16 132 26 140 21 8 -5 27 4 41 19 22 24 11 28 -70 29 l-96 1 60 27 c57 26 55 26 -50 17 -66 -6 -165 3 -246 22 -252 59 -352 41 -524 -98 -77 -62 -155 -110 -179 -110 -31 0 -4 42 44 69 30 16 45 30 33 30 -12 1 -56 -26 -98 -59 -56 -45 -97 -60 -158 -60 -45 0 -138 -18 -207 -40 -141 -44 -200 -31 -257 55 -56 86 -6 110 218 107 147 -2 214 6 291 37 55 21 176 52 269 69 109 19 221 55 314 102 l144 72 91 -31 c101 -34 259 -41 304 -12 18 11 -18 15 -100 11 l-129 -8 147 21 147 21 63 -58 c62 -57 153 -106 198 -106 35 0 -51 59 -88 59 -17 1 -44 16 -60 34 -15 19 -54 50 -87 70 -73 45 -21 51 63 7 31 -16 98 -29 147 -27 l90 3 -102 12 c-249 31 -146 103 146 102 35 0 68 8 74 17 6 10 -11 13 -39 8 -27 -5 -49 -4 -49 2 0 28 117 64 204 63 51 -1 89 5 83 14 -5 9 -34 17 -63 18 -52 1 -51 2 16 30 98 39 -7 26 -145 -19 -118 -39 -122 -27 -10 26 64 30 74 40 40 40 -25 1 -45 -8 -45 -19 0 -11 -16 -20 -37 -20 -20 0 -57 -22 -83 -50 -39 -42 -100 -68 -100 -43 0 35 168 173 214 175 31 2 83 10 116 19 42 12 26 14 -55 7 -99 -9 -113 -6 -103 21 7 17 34 31 60 31 33 0 48 11 48 36 0 20 11 47 25 61 20 20 18 23 -10 12 -19 -7 -35 -30 -35 -51 0 -21 -13 -38 -28 -38 -19 0 -25 14 -17 43 8 30 4 39 -12 29 -23 -15 -30 6 -24 78 2 31 -2 34 -16 12 -10 -15 -14 -61 -8 -102 14 -108 -44 -196 -98 -147 -36 33 -36 35 2 100 22 37 32 67 23 67 -42 0 -89 -146 -55 -170 34 -25 7 -88 -64 -145 -33 -27 -263 -35 -263 -10 0 30 103 126 176 163 75 38 195 173 134 149 -17 -6 -40 -29 -51 -49 -11 -21 -58 -57 -105 -80 -46 -23 -130 -93 -186 -155 -114 -126 -184 -141 -390 -83 l-92 25 74 67 74 67 77 -40 c43 -21 91 -39 108 -39 17 1 -9 21 -59 45 l-90 44 170 12 c114 8 138 13 73 15 -86 4 -95 8 -72 35 17 21 45 27 87 20 51 -9 55 -7 22 9 -33 17 -29 19 25 11 76 -12 154 90 104 136 -19 18 -22 16 -14 -8 23 -66 -31 -99 -143 -86 -97 12 -112 31 -42 52 17 6 6 7 -23 3 -29 -3 -58 0 -65 6 -22 23 53 86 106 88 34 2 40 6 17 12 -39 10 -48 46 -12 46 13 0 39 -14 58 -31 31 -28 41 -28 102 0 42 20 50 28 22 23 -26 -5 -80 1 -120 12 l-75 21 110 35 c61 20 94 37 75 38 -42 2 -4 82 39 82 13 0 30 10 37 22 10 15 -1 18 -33 8 -27 -9 -55 -28 -64 -43 -28 -48 -100 -107 -132 -107 -23 0 -21 6 7 27 23 16 31 37 21 52 -9 15 -4 34 12 45 23 16 23 18 -1 11 -17 -4 -35 -30 -41 -56 -14 -59 -73 -76 -87 -25 -9 30 -10 30 -7 -4 5 -66 -24 -90 -107 -90 -89 0 -90 1 -50 78 20 39 71 75 170 119 77 34 141 71 141 82 0 34 128 110 188 110 47 1 62 12 74 56 17 63 -13 76 -32 15 -7 -22 -30 -40 -53 -40 -22 0 -59 -10 -83 -23 -42 -23 -42 -22 -12 25 17 26 73 69 125 96 118 59 108 79 -13 26 -68 -30 -108 -68 -160 -150 -92 -142 -115 -155 -78 -41 23 69 53 108 117 154 48 33 87 69 87 79 0 10 18 41 40 69 43 54 53 105 20 105 -11 0 -20 -17 -20 -39 0 -21 -10 -45 -21 -52 -12 -7 -29 -31 -37 -54 -8 -22 -50 -60 -93 -84 -62 -35 -87 -67 -120 -152 -50 -131 -249 -269 -249 -172 0 41 88 113 141 114 42 2 44 4 12 17 -36 13 -36 16 -4 48 19 19 28 34 20 34 -7 0 -53 -40 -102 -90 -103 -104 -116 -109 -98 -39 22 92 97 183 180 221 46 22 102 70 129 112 30 47 69 79 105 87 31 7 57 19 57 28 0 39 -146 -38 -181 -96 -46 -76 -240 -181 -224 -121 5 20 35 41 67 48 38 9 79 43 119 101 46 67 80 93 143 110 85 23 184 78 168 93 -5 5 -30 -4 -55 -20 -50 -32 -177 -65 -177 -46 0 6 43 33 95 61 52 27 83 50 69 50 -58 2 -183 -83 -225 -153 -118 -197 -227 -239 -157 -61 61 156 90 191 176 214 42 12 90 37 105 55 25 32 24 32 -22 0 -28 -19 -70 -34 -94 -34 -80 0 -31 105 64 136 88 29 145 75 121 98 -8 9 -28 -1 -43 -22 -18 -24 -54 -39 -97 -41 -86 -3 -99 -15 -96 -89 0 -33 -13 -71 -31 -86 -28 -23 -30 -21 -17 14 23 57 26 136 6 164 -9 13 -7 41 5 63 33 63 25 72 -18 20 -23 -29 -31 -54 -20 -66 33 -34 20 -57 -16 -28 -30 23 -32 23 -13 -3 35 -48 20 -199 -33 -335 -52 -132 -89 -152 -90 -49 -1 86 -21 98 -23 14 -1 -38 11 -79 27 -92 23 -20 24 -28 3 -41 -79 -50 -166 15 -109 81 15 18 38 63 51 102 13 38 48 97 78 131 30 33 16 23 -30 -23 -48 -48 -88 -74 -93 -61 -6 13 -11 5 -12 -17 -4 -68 -54 -113 -140 -124 l-82 -11 22 57 c18 47 86 172 112 206 3 4 18 -2 33 -15 29 -23 154 30 214 91 17 17 -11 7 -62 -21 -123 -71 -167 -70 -149 2 16 61 43 84 97 85 53 0 114 37 114 68 0 15 20 41 45 58 l45 31 -47 -11 c-25 -6 -54 -32 -64 -58 -17 -45 -93 -80 -140 -64 -30 10 131 213 187 236 24 10 31 18 15 19 -16 0 -55 -24 -87 -54 l-57 -55 24 54 c14 30 51 63 85 75 33 12 56 26 50 32 -6 5 -34 1 -63 -10 -43 -16 -53 -14 -53 11 0 54 41 109 96 131 33 14 44 25 28 32 -15 5 -48 -11 -74 -35 -62 -58 -98 -35 -83 53 6 40 3 63 -8 56 -27 -16 -24 -122 5 -167 29 -48 -11 -202 -52 -202 -50 0 -82 58 -48 86 33 26 64 122 34 103 -10 -6 -18 -23 -18 -38 0 -14 -20 -40 -45 -58 l-45 -32 44 -38 c39 -34 41 -44 19 -108 -28 -80 -92 -73 -94 11 0 24 -14 67 -30 94 -30 50 -30 50 -18 -20 20 -117 30 -139 70 -161 51 -27 49 -44 -15 -153 l-53 -92 -36 45 c-33 41 -34 50 -6 117 24 58 26 83 7 129 -28 68 -47 61 -21 -8 13 -33 10 -67 -8 -108 -32 -72 -34 -62 -30 151 2 121 -3 161 -18 140 -12 -17 -15 -72 -8 -130 13 -93 11 -98 -21 -71 -21 17 -32 47 -26 74 4 25 1 41 -9 35 -28 -17 -19 -101 13 -128 32 -27 42 -140 12 -140 -10 0 -27 27 -39 60 -12 33 -31 60 -43 60 -14 0 -10 -17 9 -44 37 -54 40 -84 6 -63 -14 9 -61 21 -105 27 -60 8 -79 20 -77 45 1 19 -4 35 -12 35 -33 0 -81 -77 -81 -129 0 -52 -74 -63 -119 -18 -30 29 93 198 159 218 88 27 187 74 130 61 -22 -5 -70 -18 -106 -29 -50 -16 -65 -15 -59 3 5 13 37 32 72 42 34 10 63 26 63 36 0 10 -18 13 -40 6 -60 -19 -50 28 24 104 35 36 57 72 49 79 -14 14 -131 -109 -132 -139 -1 -9 -22 -47 -48 -85 -56 -83 -127 -59 -109 37 6 29 3 48 -7 42 -31 -19 -18 -125 18 -145 32 -19 32 -24 0 -91 -53 -111 -84 -75 -90 102 -2 84 -14 163 -25 174 -27 27 -24 -95 5 -174 14 -38 14 -70 0 -102 -17 -37 -14 -52 16 -79 37 -31 37 -34 -5 -105 -40 -68 -45 -70 -69 -37 -35 48 -34 54 15 169 l42 97 -52 76 c-29 42 -52 67 -52 57 0 -11 17 -46 38 -78 37 -56 19 -142 -53 -251 -36 -55 -38 51 -2 126 l45 93 -44 59 c-24 33 -44 69 -44 80 0 12 -9 21 -20 21 -34 0 -22 -52 20 -90 51 -46 51 -112 1 -173 -38 -45 -55 -31 -42 33 3 11 -2 13 -11 5 -19 -19 -24 -115 -6 -104 24 15 118 -127 106 -158 -6 -17 -39 -40 -73 -52 -76 -26 -81 -26 -64 1 8 12 16 60 19 105 2 46 0 67 -4 48 -17 -67 -44 -35 -51 60 l-8 95 -3 -105 c-2 -59 5 -105 16 -105 35 0 22 -48 -50 -195 -85 -172 -100 -184 -128 -102 -32 92 -27 144 17 172 41 25 111 142 95 158 -5 5 -28 -24 -52 -63 -23 -40 -50 -67 -61 -61 -10 6 -24 3 -31 -9 -31 -50 -88 -22 -71 35 36 112 42 240 10 196 -16 -21 -29 -50 -29 -65 0 -14 -9 -26 -20 -26 -68 0 10 117 107 161 57 26 70 38 41 39 -24 0 -65 -18 -93 -40 -70 -55 -302 -30 -235 25 96 79 170 112 300 135 185 33 271 65 130 49 -55 -6 -118 -16 -140 -21 -33 -9 -34 -7 -10 10 17 12 45 22 64 22 18 0 39 9 46 21 9 13 -6 16 -41 7 -38 -10 -51 -7 -41 9 7 12 50 32 95 44 45 12 77 26 71 32 -18 17 -168 -32 -195 -64 -80 -97 -399 -255 -399 -199 0 36 133 187 194 220 40 22 82 58 94 80 12 21 36 50 52 64 17 14 20 25 7 25 -12 1 -45 -29 -74 -66 -28 -37 -70 -73 -92 -79 -65 -16 -57 95 10 139 28 18 65 59 81 92 21 40 41 54 62 46 33 -12 106 40 106 75 0 11 -18 4 -39 -15 -22 -20 -54 -30 -71 -24 -22 9 -44 -9 -72 -56 -23 -38 -58 -75 -79 -81 -20 -7 -48 -43 -62 -80 -13 -37 -32 -63 -41 -58 -17 11 27 107 90 192 44 59 34 117 -20 114 -34 -2 -34 -3 -1 -12 44 -11 44 -29 -2 -88 -83 -106 -108 -178 -83 -238 22 -54 -34 -180 -80 -180 -54 0 -77 101 -32 138 33 28 55 102 30 102 -10 0 -18 -12 -18 -27 0 -15 -18 -48 -40 -73 -50 -58 -50 -77 2 -132 l42 -45 -79 -52 c-43 -28 -97 -86 -121 -127 -50 -89 -82 -119 -207 -190 l-93 -53 10 84 c10 86 34 116 186 232 34 26 57 53 51 59 -6 6 -23 -2 -36 -19 -14 -16 -64 -54 -111 -84 -92 -59 -124 -116 -124 -224 0 -42 -10 -69 -25 -69 -14 0 -50 -13 -80 -29 -48 -25 -55 -25 -55 2 0 86 335 467 411 467 26 0 68 20 94 45 26 25 31 33 12 18 -19 -15 -68 -34 -110 -44 l-76 -17 62 49 c34 26 90 92 125 146 45 71 85 106 146 130 104 41 92 61 -15 24 -58 -19 -100 -56 -159 -136 -100 -137 -250 -274 -250 -227 0 17 9 32 21 32 57 0 119 99 119 190 0 100 27 170 66 170 43 0 271 232 286 290 10 40 7 52 -9 42 -13 -8 -23 -28 -23 -44 0 -48 -267 -285 -325 -287 -57 -3 -8 98 53 110 67 12 90 39 131 154 32 88 3 63 -38 -32 -29 -68 -50 -90 -94 -99 -74 -14 -80 -5 -49 72 15 35 39 109 54 163 16 55 51 121 78 146 28 26 50 52 50 59 0 7 -21 -7 -46 -31 -26 -23 -54 -43 -62 -43 -27 0 7 108 44 140 35 31 104 130 104 149 0 34 -39 2 -60 -49z m-641 -775 c-34 -61 -99 -85 -99 -38 0 70 68 153 100 122 26 -27 26 -36 -1 -84z m118 2 c4 -2 1 -14 -6 -25 -19 -30 -90 18 -77 52 9 22 17 22 43 2 18 -13 36 -27 40 -29z m-61 -98 c-38 -83 -141 -129 -124 -55 19 78 45 106 100 106 43 0 45 -4 24 -51z m81 -24 c-2 -41 -11 -91 -20 -110 -12 -22 -10 -51 4 -77 20 -38 -17 -97 -61 -97 -60 2 -115 192 -60 209 22 7 49 30 61 52 12 21 31 33 43 25 15 -9 18 -2 11 18 -11 27 -1 55 18 55 3 0 5 -34 4 -75z m-1402 -190 c22 -25 44 -63 48 -85 5 -26 26 -42 62 -46 41 -5 55 -18 55 -50 0 -24 19 -75 42 -112 26 -43 37 -85 29 -116 -16 -63 -41 -44 -101 75 -28 54 -78 118 -113 143 -62 45 -143 189 -124 220 17 29 59 17 102 -29z m1487 -100 c25 -57 6 -109 -76 -202 -83 -93 -81 -95 -74 50 9 171 99 263 150 152z m-1246 -100 c5 -57 24 -87 95 -145 49 -40 89 -88 89 -106 0 -46 -98 -166 -99 -121 -1 17 -15 44 -33 58 -22 19 -28 45 -19 92 9 45 2 82 -20 116 -44 67 -73 196 -42 185 13 -4 26 -39 29 -79z m1946 48 c27 -21 75 -44 108 -51 154 -34 -106 -452 -281 -452 -17 0 -9 138 8 148 10 6 29 53 43 103 17 60 41 99 68 110 23 9 29 17 14 18 -37 1 -102 -57 -102 -93 0 -15 -18 -63 -40 -107 -23 -44 -36 -99 -30 -124 17 -74 -55 -135 -160 -135 l-53 0 42 53 c22 29 41 69 41 90 0 22 21 46 49 57 47 18 104 94 84 113 -5 6 -15 -8 -22 -30 -7 -22 -40 -49 -74 -61 -69 -24 -129 -5 -62 20 23 9 53 37 66 62 l24 46 -47 -42 c-27 -23 -77 -53 -112 -67 -35 -13 -93 -46 -129 -73 -71 -52 -97 -60 -97 -27 0 33 117 132 203 170 57 26 97 67 149 152 99 164 203 204 310 120z m1177 -73 c150 -19 209 -62 162 -119 -25 -30 24 -71 86 -71 19 0 26 -13 19 -40 -21 -78 -139 -40 -236 76 -30 36 -60 61 -66 55 -6 -6 9 -30 32 -52 54 -50 56 -79 6 -79 -55 0 -102 -21 -102 -45 0 -11 12 -10 30 5 28 23 90 21 247 -11 66 -14 67 -16 55 -94 -18 -110 -36 -138 -151 -235 l-101 -84 0 102 c0 89 9 112 73 183 61 67 69 85 45 105 -15 13 -21 16 -12 5 8 -10 -19 -53 -60 -95 -67 -69 -75 -88 -82 -206 -10 -148 -36 -165 -104 -70 l-43 60 52 23 c28 13 51 35 51 49 0 13 5 41 10 61 6 21 -2 11 -16 -20 -43 -88 -114 -123 -114 -56 0 59 145 205 222 223 l68 16 -61 2 c-33 1 -81 -13 -106 -30 l-46 -33 14 118 c8 64 24 124 37 132 14 9 10 14 -10 15 -38 0 -58 -77 -58 -221 0 -53 -10 -103 -22 -110 -16 -10 -18 5 -8 50 12 54 7 65 -27 74 -34 9 -37 19 -22 60 12 32 12 45 -1 37 -12 -7 -21 15 -22 54 l-2 66 -15 -62 c-14 -60 -132 -204 -151 -185 -5 5 18 65 50 133 55 116 119 178 134 131 16 -48 106 -3 106 52 0 71 16 85 67 57 23 -12 55 -24 72 -26z m267 -88 c43 -73 43 -82 -1 -82 -61 1 -96 33 -69 65 17 21 17 34 0 51 -19 19 -17 24 6 24 16 0 45 -26 64 -58z m-2456 -37 c7 -41 17 -106 22 -145 6 -38 25 -92 42 -119 25 -38 11 -32 -61 28 -92 75 -124 157 -69 176 14 4 -4 21 -40 36 -95 42 -86 99 15 99 76 0 80 -3 91 -75z m-3159 -34 c54 -82 24 -96 -43 -21 -52 59 -56 70 -26 70 21 0 52 -22 69 -49z m4371 -26 c-20 -48 -102 -125 -102 -95 0 22 106 170 116 161 5 -5 -1 -35 -14 -66z m510 -87 c-18 -43 -32 -106 -32 -139 0 -121 -156 -205 -240 -129 -54 49 63 271 157 298 36 10 81 42 100 69 47 73 57 7 15 -99z m199 8 c-8 -23 2 -46 32 -68 43 -32 43 -36 11 -85 -20 -30 -34 -92 -34 -147 -1 -159 -48 -194 -82 -62 -13 52 -14 45 -6 -35 17 -161 -83 -250 -221 -197 -30 12 -30 16 1 50 18 20 28 54 23 76 -8 29 2 42 37 51 65 16 95 81 81 180 -10 75 -4 91 70 177 84 99 110 116 88 60z m-616 -92 c35 -147 33 -153 -44 -185 -95 -40 -99 -38 -49 30 42 57 43 61 10 125 l-34 66 13 -84 12 -85 -183 -175 c-101 -97 -207 -188 -237 -204 -82 -42 -123 -83 -197 -197 -60 -93 -193 -205 -243 -205 -43 0 -37 132 9 224 27 52 48 121 48 154 0 70 61 122 145 122 84 0 372 152 399 210 12 27 39 55 59 61 20 6 37 21 37 32 0 12 16 15 35 8 24 -9 29 -7 14 7 -30 31 -168 -38 -168 -84 -1 -45 -315 -194 -409 -194 -35 0 -75 -11 -89 -25 -31 -31 -56 4 -75 101 -17 89 -11 92 174 88 165 -3 241 20 380 118 84 59 326 196 348 197 12 1 32 -47 45 -105z m-671 -14 c-9 -84 -66 -122 -193 -130 -95 -6 -112 -2 -103 23 7 17 12 39 12 49 0 10 12 18 26 18 14 0 57 23 95 51 90 66 171 61 163 -11z m-327 -42 c-22 -98 -99 -177 -119 -121 -27 74 45 203 114 203 18 0 19 -21 5 -82z m2363 64 c0 -10 5 -31 10 -46 8 -19 -16 -36 -75 -53 -47 -13 -95 -29 -107 -34 -29 -13 -10 116 20 136 32 21 152 18 152 -3z m53 -170 c-34 -36 -68 -46 -163 -50 -141 -5 -138 2 31 65 149 56 194 51 132 -15z m-1020 -36 c-7 -28 -36 -56 -72 -70 -50 -18 -61 -34 -61 -84 0 -49 -10 -64 -50 -74 -62 -15 -110 -79 -110 -147 -1 -59 -44 -117 -133 -178 -81 -55 -95 -54 -58 3 16 25 33 66 37 91 4 26 20 55 35 67 22 15 19 16 -11 6 -22 -8 -74 -19 -115 -25 -42 -6 -81 -18 -87 -28 -14 -22 -348 -22 -348 0 0 39 297 107 367 84 82 -27 150 -5 247 80 89 78 53 76 -46 -3 -69 -54 -88 -60 -158 -48 -44 8 -110 13 -148 12 l-68 -2 71 85 c86 104 177 137 234 86 24 -21 49 -29 65 -19 14 9 62 23 106 31 67 13 62 14 -33 8 -62 -4 -120 0 -130 9 -9 9 -39 20 -66 23 -37 5 -16 20 90 61 l139 55 32 -42 c42 -55 154 -38 221 32 53 56 67 52 50 -13z m1067 -76 c-28 -52 -25 -113 9 -178 32 -63 7 -121 -70 -163 -59 -31 -51 24 15 102 51 61 52 63 9 40 -26 -13 -58 -52 -72 -86 l-26 -62 -13 60 c-8 33 -3 86 10 119 13 32 22 92 20 133 -3 55 4 75 26 75 17 0 41 20 54 44 l24 45 17 -46 c10 -27 9 -61 -3 -83z m-6201 19 l190 1 70 -81 c67 -76 82 -83 241 -110 94 -16 203 -44 244 -62 48 -21 103 -29 153 -22 90 12 95 9 167 -87 40 -53 78 -79 144 -95 105 -27 129 -88 95 -240 -21 -95 -22 -94 108 -53 80 25 143 -54 153 -190 10 -139 40 -180 191 -260 90 -48 96 -57 108 -150 7 -55 18 -122 26 -150 14 -56 -44 -154 -196 -333 -49 -56 -92 -114 -97 -128 -10 -30 -503 341 -541 407 -14 24 -31 125 -38 224 -7 99 -19 205 -27 235 -12 43 -2 75 40 139 155 234 50 399 -205 324 -32 -9 -45 -4 -45 17 0 16 -18 45 -39 64 -30 27 -35 45 -20 72 10 20 18 66 16 103 -2 64 -2 64 -15 -14 -7 -44 -21 -92 -30 -107 -10 -17 -1 -40 26 -65 23 -22 42 -55 42 -73 0 -22 -37 4 -107 76 -87 88 -107 121 -103 169 2 33 1 40 -4 15 -11 -57 -9 -58 -143 24 -62 39 -169 83 -238 99 -84 19 -150 49 -196 90 -39 34 -82 62 -96 62 -15 0 -52 29 -83 63 -43 49 -47 60 -18 49 21 -8 123 -14 227 -13z m3753 -127 c34 -145 19 -272 -32 -272 -40 0 -84 343 -48 382 45 50 40 58 80 -110z m2298 53 c-7 -52 -15 -149 -17 -215 -4 -173 -51 -210 -157 -124 -81 65 -95 94 -46 94 17 0 40 23 50 50 10 28 34 50 53 50 18 0 28 5 22 12 -22 22 -91 -13 -101 -53 -16 -61 -54 -46 -54 21 0 46 12 66 49 80 47 18 104 94 84 113 -5 6 -15 -7 -21 -28 -7 -21 -42 -51 -77 -66 -52 -23 -65 -41 -65 -88 0 -53 -9 -61 -80 -76 -171 -36 -182 -17 -65 106 157 166 189 187 302 201 56 7 111 14 120 15 9 2 11 -40 3 -92z m-4470 37 c0 -22 21 -64 48 -96 97 -116 133 -265 38 -161 -80 87 -155 295 -108 295 12 0 22 -17 22 -38z m-2366 -24 c85 -53 75 -65 -42 -47 -72 11 -92 22 -92 51 0 50 49 48 134 -4z m1974 10 c53 -20 36 -48 -28 -48 -40 0 -60 10 -60 30 0 31 35 38 88 18z m4252 -17 c0 -16 18 -41 40 -57 39 -27 37 -32 -61 -161 -136 -180 -212 -226 -448 -274 -255 -51 -251 -52 -144 47 64 60 93 103 93 138 0 65 36 79 168 64 125 -15 217 48 282 191 36 81 70 106 70 52z m-5506 -132 c35 -40 92 -71 165 -91 257 -70 354 -139 373 -262 10 -67 6 -95 -14 -108 -51 -32 -59 -19 -28 43 l32 60 -73 31 c-40 17 -77 26 -83 21 -5 -5 23 -19 62 -32 l70 -23 -33 -69 c-41 -86 -82 -88 -205 -9 -51 33 -142 69 -202 80 -178 33 -215 55 -242 146 -18 59 -40 86 -80 102 -31 11 -56 35 -56 51 0 17 -6 51 -12 75 -21 78 255 65 326 -15z m1562 44 c49 -31 88 -128 60 -146 -43 -28 -86 -10 -92 38 -4 26 -32 59 -65 76 -33 16 -59 34 -59 40 0 16 129 9 156 -8z m1751 -127 c-44 -47 -68 -13 -52 72 l11 59 38 -46 c35 -44 35 -49 3 -85z m-300 -6 c7 -16 28 -30 47 -31 20 0 57 -12 83 -27 l48 -26 -64 -45 c-91 -65 -161 -29 -161 82 0 77 26 103 47 47z m2892 -139 l87 -89 -73 -90 c-69 -84 -78 -88 -132 -69 l-58 20 63 87 c35 48 78 92 94 98 17 5 -1 7 -40 3 -44 -4 -83 5 -106 25 -19 17 -73 37 -120 45 -81 12 -82 13 -34 34 120 53 225 32 319 -64z m-1207 -61 c-57 -87 -163 -149 -343 -200 -99 -28 -255 -87 -347 -131 -92 -44 -172 -76 -177 -71 -24 25 35 126 95 162 71 43 182 149 253 243 43 56 46 57 224 52 140 -5 184 0 197 23 9 15 39 31 66 35 62 9 77 -44 32 -113z m1823 75 c-20 -4 -31 -16 -25 -25 6 -10 0 -24 -13 -32 -14 -9 -18 -6 -9 9 17 28 1 29 -46 4 -24 -13 -50 -9 -86 15 -51 34 -51 34 81 36 73 0 117 -2 98 -7z m-810 -45 c28 -22 66 -40 84 -40 26 0 19 -17 -28 -76 l-61 -75 -159 29 c-174 32 -176 37 -74 147 63 67 164 74 238 15z m615 -10 c14 -16 47 -30 74 -30 62 0 44 -30 -34 -57 -56 -20 -59 -18 -39 18 12 24 13 39 1 39 -11 0 -25 -18 -32 -40 -12 -37 -24 -40 -117 -28 -131 17 -130 15 -40 76 86 59 150 66 187 22z m-4428 -59 c106 -22 188 -137 188 -263 0 -41 11 -105 24 -142 23 -62 20 -70 -42 -134 l-66 -68 -115 57 -115 57 -16 116 c-33 233 -3 457 55 410 14 -10 53 -25 87 -33z m-1272 -41 l68 -70 -66 0 c-59 0 -65 5 -55 44 6 24 2 56 -10 70 -44 52 -3 24 63 -44z m2061 -135 c19 -63 7 -69 -44 -22 -37 33 -50 127 -23 155 14 14 35 -27 67 -133z m3817 87 c54 -54 1 -102 -115 -102 -66 0 -98 -14 -159 -69 -95 -86 -162 -104 -239 -63 -124 64 -79 152 79 152 63 0 108 13 146 44 48 37 133 65 225 74 14 1 42 -15 63 -36z m-307 -13 c-55 -41 -206 -41 -171 1 16 19 59 30 117 29 86 0 90 -2 54 -30z m-931 -78 c0 -58 -43 -138 -125 -232 -47 -53 -103 -131 -124 -173 -22 -42 -41 -79 -44 -83 -6 -9 -126 124 -126 140 -1 8 31 24 70 37 88 29 81 46 -7 21 -49 -14 -64 -12 -64 8 0 15 22 32 48 39 27 6 88 49 135 95 58 56 71 75 37 57 -27 -14 -70 -47 -94 -73 -24 -26 -63 -47 -87 -47 -29 0 -50 -19 -65 -60 -27 -71 -64 -76 -127 -17 -43 40 -53 42 -126 17 -45 -14 -111 -20 -154 -13 -115 18 -227 -5 -227 -47 0 -45 -75 -140 -110 -140 -15 0 -55 -23 -88 -52 -42 -34 -62 -42 -62 -24 0 16 -23 59 -50 97 l-51 68 66 24 c36 12 143 63 239 112 325 168 1136 343 1136 246z m305 -24 c145 -27 56 -131 -234 -270 -203 -97 -224 -91 -116 32 48 55 86 122 95 166 22 117 21 117 255 72z m-4548 -74 c-74 -140 -94 -147 -408 -159 -75 -3 -141 -18 -174 -39 -81 -53 -81 -44 -5 57 39 50 70 109 70 130 0 57 81 79 246 66 79 -7 167 -3 194 8 69 27 107 -4 77 -63z m2693 66 c31 -48 -13 -180 -69 -209 -70 -36 -116 -132 -133 -278 l-14 -114 -46 44 c-43 40 -44 47 -17 100 16 31 29 84 29 118 0 35 10 82 22 106 21 42 21 42 -13 10 -21 -20 -34 -60 -33 -100 4 -81 -34 -180 -64 -170 -24 9 -19 372 6 399 8 8 61 26 118 40 57 13 104 36 104 50 0 30 92 34 110 4z m-1045 -38 c30 -15 55 -35 55 -44 0 -22 -102 -22 -136 0 -25 16 -12 91 13 78 7 -3 38 -19 68 -34z m536 -5 c32 -24 59 -58 60 -75 0 -17 13 -48 30 -70 39 -52 37 -71 -9 -71 -22 0 -55 29 -79 70 -25 41 -56 69 -77 68 -28 -2 -29 -4 -5 -11 17 -5 47 -35 66 -68 19 -32 53 -68 74 -80 40 -21 60 -199 22 -199 -28 0 -81 69 -105 138 l-23 65 -118 -13 -117 -14 0 61 c0 66 18 89 126 163 41 28 74 57 74 65 0 24 18 18 81 -29z m2508 32 c25 -10 27 -19 9 -40 -34 -41 -78 -34 -78 12 0 42 15 48 69 28z m179 -135 c62 -57 177 -93 300 -93 76 0 212 -43 212 -66 0 -4 -32 -2 -71 2 -51 6 -111 -9 -205 -53 -86 -39 -184 -66 -274 -75 -77 -8 -211 -35 -297 -61 -87 -25 -166 -42 -175 -36 -10 6 -73 11 -140 12 -139 0 -135 13 22 79 111 46 428 230 517 300 59 47 51 47 111 -9z m-5748 -73 c28 -22 65 -39 83 -40 115 -1 124 -53 12 -66 -47 -6 -126 -16 -177 -22 l-91 -12 8 65 c4 36 12 76 16 90 12 37 92 29 149 -15z m6610 -11 c-62 -30 -134 -48 -190 -48 l-90 1 100 48 c59 27 137 47 190 47 l90 0 -100 -48z m-2081 -60 c21 -16 56 -29 77 -29 107 0 221 -225 150 -296 -25 -25 -309 -33 -392 -11 l-46 12 44 48 c37 38 66 47 156 48 62 1 130 9 152 18 25 10 -18 15 -114 13 -139 -3 -160 -8 -212 -58 l-58 -56 -74 35 c-52 25 -70 44 -60 66 7 17 17 45 22 63 6 22 63 45 173 70 89 21 145 40 123 43 -87 12 -319 -63 -327 -105 -13 -71 -45 -90 -150 -89 -103 1 -103 1 -43 27 71 32 123 87 133 142 7 35 26 41 167 46 88 3 168 14 179 25 26 26 54 23 100 -12z m-4889 -29 c21 -14 -2 -19 -80 -18 -85 2 -99 6 -60 18 70 22 105 22 140 0z m1127 -106 c10 -64 14 -120 8 -125 -24 -25 -75 21 -77 68 l-2 53 -15 -50 c-16 -50 -16 -50 -48 20 -31 68 -31 69 -32 15 -1 -68 -69 -115 -170 -119 -74 -3 -75 -3 -26 -29 28 -14 55 -44 61 -66 12 -49 12 -49 -79 -11 -115 48 -127 34 -17 -19 l100 -49 -140 8 c-108 6 -122 5 -60 -8 44 -9 104 -23 133 -31 32 -8 58 -6 66 7 32 52 191 -53 191 -126 0 -65 -138 -94 -169 -37 -54 99 -65 109 -146 124 -66 12 -83 8 -104 -24 -14 -24 -15 -34 -2 -26 12 8 27 -1 33 -18 7 -17 27 -31 46 -31 30 0 93 -115 74 -135 -24 -24 -118 29 -153 87 -23 37 -52 68 -64 68 -12 0 -40 16 -61 35 -39 34 -39 34 -12 -10 15 -25 38 -45 51 -45 12 0 38 -24 57 -53 34 -51 34 -53 -3 -39 -79 31 -147 37 -147 13 0 -13 8 -19 17 -13 16 10 258 -56 322 -87 54 -26 46 -61 -14 -61 -35 0 -74 -17 -97 -44 l-38 -43 49 33 c28 19 76 34 108 34 51 0 56 5 45 50 -17 68 12 63 96 -17 60 -56 68 -74 55 -122 -13 -49 -17 -52 -41 -23 -31 37 -267 45 -381 12 -85 -24 -79 -32 -123 154 -61 255 -54 312 52 415 50 49 90 106 90 129 0 29 13 42 41 42 57 0 117 33 195 107 64 61 194 111 274 106 33 -3 43 -24 57 -119z m-381 25 c-89 -84 -172 -104 -194 -46 -7 18 -10 34 -7 35 3 1 41 21 85 45 44 23 107 43 140 44 l60 2 -84 -80z m2625 -20 c36 -81 90 -122 191 -146 82 -19 116 -120 65 -188 -47 -63 -87 -80 -87 -37 0 17 -23 46 -50 64 -32 21 -59 65 -73 121 -12 48 -33 87 -46 87 -13 0 -45 23 -71 50 -26 28 -68 50 -93 50 -26 0 -47 4 -47 8 0 5 -5 23 -12 40 -33 87 183 39 223 -49z m-2871 -26 c0 -41 -8 -46 -55 -37 -102 19 -105 84 -4 84 49 0 59 -8 59 -47z m-303 -4 c-20 -21 -56 -29 -99 -24 -68 7 -68 7 -18 30 82 37 156 33 117 -6z m178 -29 c28 -22 72 -40 98 -40 54 0 36 -62 -31 -114 -47 -37 -57 -31 -47 24 10 51 -56 128 -110 129 -14 1 -25 10 -25 21 0 33 60 23 115 -20z m2939 -38 c42 -35 64 -70 65 -108 0 -31 23 -78 51 -105 44 -45 90 -113 90 -135 0 -4 -40 30 -90 75 -49 45 -90 93 -90 105 0 13 -18 29 -40 36 -33 11 -36 20 -19 56 20 43 20 43 -10 5 -41 -51 -39 -66 9 -81 22 -7 40 -25 40 -40 0 -16 32 -52 71 -82 89 -68 177 -234 160 -301 -7 -27 6 -126 29 -221 22 -94 37 -176 33 -180 -16 -16 -112 178 -125 250 -18 105 -58 160 -122 168 -45 5 -59 21 -80 94 -39 135 -76 166 -180 150 -104 -15 -106 -5 -16 81 71 66 81 104 71 248 -5 80 43 75 153 -15z m674 10 c44 -94 40 -147 -20 -268 -73 -147 -80 -133 -60 116 19 237 30 257 80 152z m-3646 -34 c47 -47 -22 -310 -77 -289 -15 6 -68 11 -117 11 -86 0 -88 2 -88 65 -1 143 -23 219 -63 208 -20 -5 -32 -1 -26 9 6 10 60 18 119 18 59 0 113 9 121 21 16 27 83 5 131 -43z m-393 25 c-29 -27 -149 -63 -149 -45 0 9 20 26 45 38 55 26 131 31 104 7z m6697 -11 c188 -33 194 -38 110 -78 -53 -25 -85 -27 -162 -11 -74 16 -113 14 -170 -8 -58 -22 -94 -23 -170 -6 l-95 21 84 55 c98 63 169 68 403 27z m-5617 -23 c21 -16 55 -29 74 -29 29 0 34 -16 31 -85 -2 -47 3 -108 11 -137 27 -97 -68 -113 -128 -22 -26 41 -72 85 -102 100 -30 14 -55 42 -55 61 0 19 -11 46 -24 59 -19 19 -13 24 28 24 28 0 62 14 76 30 30 37 40 37 89 -1z m3517 -102 c35 -18 112 -39 171 -45 l107 -12 -86 -69 c-71 -57 -110 -72 -214 -83 -106 -11 -150 -28 -261 -103 -173 -116 -167 -113 -283 -143 -126 -33 -137 1 -26 77 95 64 179 190 196 293 20 119 240 166 396 85z m858 -187 c24 0 110 23 192 51 179 62 183 60 86 -47 -69 -75 -145 -118 -111 -62 10 15 0 18 -31 8 -25 -8 -100 -12 -167 -9 -227 10 -302 9 -423 -6 l-120 -15 46 39 c25 21 96 53 159 72 62 18 131 45 152 60 35 24 47 21 107 -32 37 -32 87 -59 110 -59z m-5838 17 c42 -23 42 -24 4 -38 -48 -17 -70 -7 -70 32 0 35 10 36 66 6z m1222 -59 c59 -69 67 -118 20 -118 -17 0 -42 27 -54 60 -13 35 -37 60 -57 60 -38 0 -63 27 -43 47 29 30 86 9 134 -49z m2884 -70 c-19 -48 -52 -31 -52 28 0 80 48 125 56 54 4 -30 2 -66 -4 -82z m-662 92 c7 -11 52 -20 101 -20 82 0 89 -4 106 -65 24 -90 5 -102 -162 -102 -101 1 -124 -3 -75 -12 l70 -13 -77 -34 c-92 -40 -97 -41 -161 -11 l-51 23 50 58 c27 33 49 76 49 96 0 64 120 128 150 80z m-1790 -89 c66 -124 -120 -245 -229 -149 -92 81 -91 83 44 143 146 65 153 65 185 6z m4018 -76 c20 -52 -39 -76 -88 -35 -31 26 -70 11 -70 -26 1 -16 6 -15 18 3 14 22 26 21 69 -7 28 -18 59 -28 69 -22 10 6 29 -12 42 -41 24 -53 68 -57 227 -16 51 13 55 9 55 -48 0 -80 -54 -109 -168 -92 -55 8 -104 4 -133 -12 -59 -31 -106 23 -89 102 14 61 -31 110 -81 91 -18 -6 -51 -1 -75 11 -40 21 -41 20 -17 -10 16 -18 54 -33 85 -33 108 0 79 -205 -34 -239 -42 -13 -47 -18 -17 -19 22 -1 59 11 82 27 59 42 76 13 24 -43 -58 -61 -155 -60 -325 4 -73 28 -151 50 -172 50 -30 0 -40 14 -40 53 0 58 222 64 291 6 25 -20 28 -19 18 6 -6 17 -45 37 -85 45 l-74 14 48 39 48 38 57 -58 c32 -32 80 -63 107 -68 68 -13 63 -3 -18 36 -38 17 -74 45 -80 61 -12 32 19 39 38 8 7 -11 23 -20 36 -20 12 0 2 15 -24 33 -31 22 -86 32 -165 31 -114 -2 -118 0 -106 42 19 59 3 52 202 94 250 53 324 51 345 -5z m102 27 c0 -9 -13 -28 -30 -42 -16 -14 -30 -20 -30 -14 0 6 -5 25 -12 42 -9 23 0 32 30 32 23 0 42 -8 42 -18z m252 -73 c57 -27 142 -84 190 -126 49 -42 108 -88 133 -101 25 -13 45 -36 45 -51 0 -15 29 -44 65 -66 64 -38 143 -180 88 -159 -13 5 -82 -1 -154 -14 -127 -24 -200 -22 -198 4 3 32 130 112 184 116 96 7 89 28 -10 28 -75 0 -106 12 -175 70 -51 43 -105 70 -139 70 -68 0 -64 98 4 115 31 9 25 16 -33 36 -58 20 -86 19 -147 -2 -137 -49 -193 8 -102 104 53 57 89 53 249 -24z m330 -49 c148 -66 288 -120 312 -120 42 0 86 -51 86 -99 0 -32 -111 -25 -139 8 -13 16 -73 39 -132 51 -81 17 -131 44 -203 109 -53 47 -127 105 -166 128 -123 75 -33 46 242 -77z m-4203 -272 c64 -61 -112 -33 -183 29 -85 74 -182 123 -240 122 -31 -1 -16 -13 50 -38 109 -43 277 -181 219 -181 -19 0 -80 14 -134 31 -55 16 -91 22 -80 12 33 -31 152 -63 232 -63 85 0 95 -12 42 -52 -32 -24 -31 -25 10 -15 27 7 45 27 45 49 0 23 19 42 50 50 51 13 68 1 297 -196 80 -70 79 -70 -278 14 -164 39 -368 76 -453 83 -195 16 -256 63 -207 159 17 32 31 86 31 119 0 45 23 86 85 151 l85 89 200 -168 c110 -92 213 -180 229 -195z m1635 248 c103 -12 70 -50 -55 -65 -136 -15 -169 -3 -110 41 43 31 19 39 -28 9 -20 -13 -35 -11 -45 5 -52 81 89 139 149 62 20 -25 60 -48 89 -52z m1326 49 c-1 -30 -31 -60 -75 -74 -53 -16 -95 -82 -65 -101 32 -20 24 -110 -9 -110 -16 0 -59 -25 -95 -56 -36 -30 -106 -81 -154 -112 l-88 -56 14 102 c19 143 27 159 109 201 40 20 96 62 123 92 87 95 241 168 240 114z m-1588 -69 c37 -71 -25 -156 -114 -156 -53 0 -197 -75 -210 -109 -6 -15 -35 -33 -64 -40 -30 -7 -70 -18 -89 -23 -45 -14 -44 6 6 172 63 205 75 217 178 171 82 -38 84 -38 167 4 46 24 86 43 88 44 3 0 20 -28 38 -63z m-2004 -115 c-5 -129 -21 -153 -70 -109 -49 44 -48 118 2 168 60 60 73 49 68 -59z m3712 88 c0 -19 -137 -69 -189 -69 -59 0 -67 29 -16 58 36 22 205 30 205 11z m-1380 -85 c0 -19 27 -83 59 -144 77 -143 78 -142 -39 -258 -98 -98 -100 -99 -112 -51 -18 72 7 178 52 219 22 20 40 46 40 58 0 13 -8 11 -17 -4 -12 -18 -27 0 -50 61 -42 110 -42 150 2 160 47 11 65 -1 65 -41z m-120 -25 l0 -62 -59 42 c-44 32 -62 36 -73 16 -8 -14 -7 -19 1 -11 21 19 146 -78 161 -124 6 -20 -2 -70 -18 -113 -16 -42 -32 -93 -36 -112 -13 -71 -103 6 -123 105 -10 50 -22 80 -26 69 -24 -65 27 -180 93 -211 37 -18 74 -50 82 -70 24 -59 21 -324 -2 -288 -11 17 -20 54 -20 84 0 38 -17 64 -59 88 -32 20 -74 65 -94 101 -43 80 -62 71 -27 -12 13 -33 55 -79 92 -102 50 -31 68 -57 68 -96 0 -29 22 -89 49 -133 92 -149 -7 -214 -138 -91 -24 23 -59 41 -77 41 -25 0 -34 18 -34 68 0 68 -88 172 -146 172 -12 0 8 -25 44 -56 47 -39 71 -79 80 -134 9 -58 24 -82 52 -87 22 -4 66 -30 98 -57 41 -34 72 -45 106 -37 59 15 106 -80 106 -217 0 -149 -92 -124 -180 49 -33 63 -121 161 -98 109 33 -74 97 -169 153 -223 78 -77 78 -73 14 -153 l-51 -64 -305 300 c-495 487 -539 610 -290 810 74 59 167 204 145 225 -20 20 100 97 186 118 51 13 103 42 122 69 57 79 204 69 204 -13z m-3860 -63 c0 -31 -6 -33 -40 -11 -40 25 -53 76 -26 103 20 19 66 -46 66 -92z m4646 -21 c-30 -94 -32 -95 -118 -95 -131 0 -133 101 -3 147 171 61 160 66 121 -52z m1661 -8 c114 -88 98 -119 -36 -71 -76 27 -102 47 -113 89 -21 79 33 72 149 -18z m329 54 c129 -37 273 -180 226 -224 -43 -39 -38 -86 9 -105 33 -12 -44 -189 -83 -191 -32 -1 -181 -166 -197 -218 -10 -31 -30 -43 -74 -43 -33 0 -78 -10 -101 -22 -32 -17 -55 -14 -107 14 l-66 36 51 61 c28 33 75 67 104 74 l52 12 -53 3 c-39 1 -73 -21 -130 -88 l-77 -89 -146 19 c-181 24 -181 24 -197 124 -15 97 -67 156 -136 156 -36 0 -47 8 -38 30 6 17 29 30 50 30 21 0 85 46 142 103 l102 102 37 -45 c20 -24 36 -57 36 -72 0 -31 95 -100 113 -81 7 6 -11 22 -40 35 -29 14 -53 39 -53 57 0 18 -11 44 -24 57 -19 19 -16 24 11 24 55 0 173 -104 173 -153 0 -58 36 -83 141 -99 49 -7 102 -23 117 -36 24 -19 25 -15 5 23 -19 35 -42 45 -101 45 -81 0 -158 58 -131 101 8 13 2 31 -13 40 -66 41 53 43 164 3 118 -42 148 -40 84 6 -29 22 -19 27 73 40 80 11 110 8 123 -13 13 -20 18 -17 19 13 l2 40 17 -40 c9 -22 18 -30 19 -18 3 59 -85 210 -140 238 -101 53 -79 84 37 51z m-7213 -34 c45 -40 48 -87 7 -87 -25 0 -70 72 -70 111 0 19 28 8 63 -24z m499 -63 c-10 -19 -37 -51 -60 -72 l-42 -38 0 103 0 104 60 -31 c48 -25 57 -38 42 -66z m1544 13 c78 -111 69 -116 -146 -74 -317 60 -347 153 -50 155 l140 0 56 -81z m4597 63 c64 0 77 -7 77 -40 0 -42 42 -67 148 -90 54 -11 56 -15 25 -45 -30 -30 -42 -30 -170 3 -127 33 -143 33 -200 4 -81 -42 -97 -41 -165 16 l-57 49 72 63 c59 52 84 62 132 52 33 -7 95 -12 138 -12z m-5063 -91 c0 -14 -53 -28 -135 -36 -74 -6 -155 -18 -180 -25 -62 -18 -57 20 10 64 139 91 305 89 305 -3z m5963 -19 c42 -38 66 -70 52 -70 -41 0 -177 100 -164 121 18 29 28 24 112 -51z m-6813 17 c234 -18 276 -60 87 -86 -46 -6 -86 -22 -89 -36 -3 -15 0 -17 5 -5 6 11 39 20 74 21 35 0 86 13 113 29 55 32 200 40 200 12 0 -10 -65 -34 -145 -53 -80 -19 -180 -47 -223 -62 -67 -24 -83 -23 -111 2 -18 16 -66 43 -107 61 l-75 31 45 60 c29 39 55 56 75 48 17 -7 85 -17 151 -22z m2792 -64 c-64 -91 -93 -108 -121 -75 -19 24 -9 38 52 80 99 67 119 66 69 -5z m2210 17 c-6 -22 -17 -60 -23 -85 l-10 -45 20 46 c20 44 22 44 82 13 35 -17 67 -28 71 -23 5 5 -18 20 -51 34 -60 25 -79 66 -41 90 11 6 92 -13 181 -43 143 -48 171 -52 245 -32 115 31 230 -63 165 -134 -21 -23 -54 -41 -74 -41 -20 0 -48 -18 -62 -40 -31 -50 -71 -50 -135 0 -55 43 -140 52 -174 18 -15 -15 -40 -12 -86 12 -37 19 -84 28 -111 21 -66 -16 -133 182 -76 224 54 39 94 32 79 -15z m-1880 -55 c-16 -30 -60 -85 -98 -122 -38 -36 -85 -102 -105 -145 -19 -43 -41 -78 -48 -78 -25 0 -83 121 -69 145 65 114 161 215 207 216 28 1 69 10 91 19 22 9 42 18 46 19 3 0 -8 -24 -24 -54z m1327 -49 c-25 -88 -129 -232 -152 -210 -24 25 -18 255 8 271 68 42 162 2 144 -61z m377 -26 c26 -108 25 -111 -33 -195 -90 -128 -416 -435 -462 -435 -43 0 34 244 102 326 79 94 157 228 157 268 0 20 11 20 50 2 66 -30 66 -30 -50 -174 -104 -129 -110 -145 -79 -212 15 -31 17 -27 8 22 -9 54 5 78 122 205 l133 144 -62 21 c-78 27 -77 37 3 92 87 58 82 61 111 -64z m2598 54 c17 -11 13 -32 -17 -79 -47 -75 -62 -78 -127 -30 l-47 35 74 45 c82 50 83 50 117 29z m-8528 -99 l64 -34 -120 -12 c-142 -14 -148 -12 -100 41 44 49 73 50 156 5z m1247 -90 c-7 -25 -13 -65 -13 -90 0 -68 -51 -54 -98 26 -30 51 -35 73 -17 78 14 4 39 12 55 18 66 22 85 14 73 -32z m-1430 -56 c-50 -41 -83 -50 -83 -23 0 30 48 64 89 63 39 0 39 -2 -6 -40z m258 3 c-44 -83 -119 -121 -218 -112 -75 8 -81 6 -31 -7 34 -9 70 -22 81 -29 27 -16 152 70 194 134 46 70 273 80 273 13 0 -53 -74 -101 -156 -101 -72 0 -142 -30 -175 -75 -43 -58 -259 -57 -329 2 -35 29 -73 53 -85 53 -44 0 4 24 85 42 46 11 116 41 156 69 94 63 237 71 205 11z m6445 -49 c48 -17 24 -53 -36 -53 -60 0 -81 -32 -48 -72 22 -27 18 -27 -29 -6 -45 21 -53 37 -53 108 0 105 13 118 78 73 28 -20 68 -42 88 -50z m-1386 -11 c0 -11 23 -46 51 -80 34 -40 50 -79 45 -115 -6 -54 -6 -54 -60 27 -63 96 -91 186 -58 186 12 0 22 -8 22 -18z m-5400 -164 c0 -10 -29 -18 -65 -17 -60 0 -62 2 -28 28 37 29 93 22 93 -11z m5302 -326 c19 -69 16 -83 -20 -119 l-42 -42 0 60 c0 33 -18 125 -40 204 -22 80 -40 151 -40 160 1 34 121 -190 142 -263z m2426 158 c-37 -57 -72 -63 -108 -20 -26 31 26 66 105 69 34 1 34 -2 3 -49z m-1398 -135 c-16 -99 -22 -105 -95 -123 -78 -18 -72 29 17 128 91 100 95 99 78 -5z m-355 6 c60 -50 57 -66 -26 -139 -75 -66 -89 -67 -247 -13 l-68 24 118 81 c135 94 161 99 223 47z m185 -80 c0 -20 -120 -199 -144 -213 -10 -7 -4 17 14 53 21 40 30 90 24 128 -10 60 -7 63 48 55 32 -5 58 -15 58 -23z m-120 -52 c0 -72 -104 -209 -159 -209 -17 0 -64 -22 -105 -49 -70 -48 -101 -56 -333 -81 l-107 -12 87 108 c48 59 105 133 127 164 l41 55 113 -32 c163 -48 207 -43 259 27 49 66 77 77 77 29z"/> <path d="M3553 4470 c6 -17 2 -42 -10 -56 -26 -31 -8 -61 57 -92 l50 -25 -45 37 c-37 30 -43 49 -33 101 8 42 5 65 -9 65 -12 0 -17 -14 -10 -30z"/> <path d="M9080 3000 c-23 -15 -18 -19 23 -20 30 0 70 -5 90 -12 34 -10 34 -9 -2 20 -44 37 -69 39 -111 12z"/> <path d="M4740 5978 c0 -8 25 -18 55 -22 48 -5 56 -15 61 -86 4 -44 13 -87 21 -95 22 -22 23 128 2 167 -18 33 -139 64 -139 36z"/> <path d="M2240 4366 c0 -30 41 -58 107 -74 37 -9 52 -6 43 7 -7 12 -27 21 -45 21 -17 0 -48 15 -68 33 -21 18 -37 24 -37 13z"/> <path d="M8030 3152 c-46 -60 -60 -68 -93 -50 -22 11 -54 17 -73 12 -25 -7 -22 -10 10 -12 24 -1 49 -11 56 -22 7 -11 23 -20 36 -20 28 0 143 138 128 153 -5 5 -34 -22 -64 -61z"/> </g> </svg>